<svg width="1727" height="564" viewBox="0 0 1727 564" fill="none" xmlns="http://www.w3.org/2000/svg">
<path d="M1107 1.52588e-05C1107 32.8305 1100.53 65.3395 1087.97 95.6709C1075.41 126.002 1056.99 153.562 1033.78 176.777C1010.56 199.991 983.002 218.406 952.671 230.97C922.339 243.534 889.83 250 857 250C824.17 250 791.661 243.534 761.329 230.97C730.998 218.406 703.438 199.991 680.223 176.777C657.009 153.562 638.594 126.002 626.03 95.6709C613.466 65.3395 607 32.8305 607 0H608C608 32.6991 614.441 65.0781 626.954 95.2881C639.468 125.498 657.809 152.948 680.931 176.069C704.052 199.191 731.502 217.532 761.712 230.046C791.922 242.559 824.301 249 857 249C889.699 249 922.078 242.559 952.288 230.046C982.498 217.532 1009.95 199.191 1033.07 176.069C1056.19 152.948 1074.53 125.498 1087.05 95.2881C1099.56 65.0781 1106 32.6991 1106 1.52588e-05H1107Z" fill="#C4C4C4"/>
<path d="M607.5 0.5H1V563.5H1726.5V0.5H1106.5" stroke="#B7B7A4"/>
</svg>
